<?xml version="1.0" encoding="UTF-8" standalone="no"?>
<svg
   xmlns:dc="http://purl.org/dc/elements/1.1/"
   xmlns:cc="http://creativecommons.org/ns#"
   xmlns:rdf="http://www.w3.org/1999/02/22-rdf-syntax-ns#"
   xmlns:svg="http://www.w3.org/2000/svg"
   xmlns="http://www.w3.org/2000/svg"
   xmlns:sodipodi="http://sodipodi.sourceforge.net/DTD/sodipodi-0.dtd"
   xmlns:inkscape="http://www.inkscape.org/namespaces/inkscape"
   height="240"
   width="290"
   version="1.1"
   id="svg5539"
   sodipodi:docname="raul logo nasa.svg"
   inkscape:version="0.92.3 (2405546, 2018-03-11)">
  <metadata
     id="metadata5545">
    <rdf:RDF>
      <cc:Work
         rdf:about="">
        <dc:format>image/svg+xml</dc:format>
        <dc:type
           rdf:resource="http://purl.org/dc/dcmitype/StillImage" />
        <dc:title />
      </cc:Work>
    </rdf:RDF>
  </metadata>
  <defs
     id="defs5543" />
  <sodipodi:namedview
     pagecolor="#ffffff"
     bordercolor="#666666"
     borderopacity="1"
     objecttolerance="10"
     gridtolerance="10"
     guidetolerance="10"
     inkscape:pageopacity="0"
     inkscape:pageshadow="2"
     inkscape:window-width="1280"
     inkscape:window-height="962"
     id="namedview5541"
     showgrid="false"
     inkscape:zoom="2.7812867"
     inkscape:cx="133.64084"
     inkscape:cy="120"
     inkscape:window-x="-8"
     inkscape:window-y="-8"
     inkscape:window-maximized="1"
     inkscape:current-layer="layer1" />
  <path
     d="m161.19,182c50.379,20.724,41.636-31.647,14.782-71.747-15.22-22.718-33.99-40.74-47.59-50.78-15.88-11.725-17.43-12.697-17.43-12.697,35.462,16.831,67.678,58.165,80.971,88.616,6.1401,14.059,22.88,69.692-30.437,47.2"
     fill-rule="nonzero"
     fill="#FFF"
     id="path5537" />
  <path
     d="m161.19,182c50.379,20.724,41.636-31.647,14.782-71.747-15.22-22.718-35.07-41.645-47.59-50.78-41.513-30.298-67.14-11.922-37.826,47.83,9.4777,19.319,21.651,32.358,31.159,44.648,7.261,9.3828,21.404,14.081,16.422,18.534-5.6144,5.0207-19.209-17.124-19.209-17.124-10.04-12.11-19.61-25.03-29.473-42.76-22.535-40.499-19.286-81.833,21.503-63.828,34.615,15.288,67.678,58.166,80.971,88.616,6.1401,14.059,22.88,69.692-30.437,47.2"
     fill-rule="nonzero"
     fill="#FFF"
     id="path5429" />
  <path
     d="m 19.515,145.62 c -6.4536,3.1571 -15.8367331,8.77172 -20.7417331,11.81682 v 0 C 3.0628669,154.79492 14.7995,150.6307 20.2246,148.2021"
     id="path5533"
     style="fill:#eeff3d;fill-opacity:1;fill-rule:nonzero"
     inkscape:connector-curvature="0"
     sodipodi:nodetypes="cccc" />
  <path
     d="m 53.587,205.28 c -5.8995,5.1489 -11.997,10.645 -18.113,16.406 l 2.5599,0.17029 c 5.5998,-5.768 9.64897,-8.09769 17.58797,-14.70769"
     id="path5535"
     style="fill:#eeff3d;fill-opacity:1;fill-rule:nonzero"
     inkscape:connector-curvature="0"
     sodipodi:nodetypes="cccc" />
  <g
     inkscape:groupmode="layer"
     id="layer2"
     inkscape:label="circulo"
     style="display:inline">
    <path
       d="m 243.52135,118.92136 c 0,64.618 -39.9308,110.96863 -104.6168,110.96863 C 74.219549,229.88999 16.67,183.89591 16.67,119.28091 16.67,54.658908 67.581362,13.705466 133.51136,13.705466 c 63.437,0 110.00999,40.596896 110.00999,105.215894"
       id="path5427"
       inkscape:connector-curvature="0"
       style="fill:#d35dad;fill-opacity:1;fill-rule:nonzero"
       sodipodi:nodetypes="csssc" />
  </g>
  <g
     inkscape:groupmode="layer"
     id="layer3"
     inkscape:label="simbolo 2">
    <path
       d="m 282.22681,11.024179 c 0.72639,59.783825 -83.12863,99.872191 -143.72863,139.173191 -36.559,23.714 -75.47628,48.43092 -100.46428,71.65892 -6.5866,6.1255 -4.307171,-5.46256 -6.831371,-2.87637 34.872,-40.153 81.098281,-62.99036 103.265281,-78.04336 37.489,-25.469 59.53109,-30.09027 124.20909,-89.66527"
       id="path5531"
       style="fill:#eefa3d;fill-opacity:1;fill-rule:nonzero"
       inkscape:connector-curvature="0"
       sodipodi:nodetypes="cccccc" />
  </g>
  <g
     inkscape:groupmode="layer"
     id="layer4"
     inkscape:label="simbolo 1">
    <path
       d="m 1.6496334,152.04363 c 2.5865355,-1.72257 5.5169539,-3.3739 8.0974309,-4.96594 C 29.27767,135.02818 50.796621,123.13943 82.382363,112.70772 132.63136,96.107721 169.73227,86.028359 216.13327,62.704359 236.90327,52.266359 270.786,26.700084 283.676,6.3490836 279.816,14.225084 276.13555,37.105546 270.72555,43.886546 207.76555,122.71955 64.666904,124.00227 0.73690383,161.84927"
       id="path5431"
       style="fill:#eeff3d;fill-opacity:1;fill-rule:nonzero"
       inkscape:connector-curvature="0"
       sodipodi:nodetypes="csccccc" />
  </g>
  <g
     inkscape:groupmode="layer"
     id="layer1"
     inkscape:label="letras">
    <path
       d="m36.678,97.303c20.284,0.15916,18.294-0.04072,18.531,0.1969,0.35457,0,16.196,27.282,16.196,27.517,0,0.11657-0.11844-9.6951-0.11844-21.966,0-1.4172-3.8995-5.5505-3.7829-5.5505,5.7896,0,13.357,0.11844,13.357,0.11844-2.8354,3.3069-3.4018,3.0357-3.4254,5.079-0.07995,6.5716-0.15468,18.716,0,32.358,0.02204,2.0448,1.5371,2.8343,4.0194,6.3777h-18.562c-6.0291-10.038-17.077-28.869-17.022-28.816,0.08481,0.0863-0.238,11.812,0.11545,21.257,0.11956,3.1216,1.5382,4.133,4.1405,6.9688,0,0,2.9931-0.0803-14.542,0.11694,5.3196-2.8343,4.6131-6.3766,4.6105-6.4947-0.19129-13.052-0.0396-24.211-0.0396-31.415,0-1.1806-0.08033-1.0641-3.7433-5.5505"
       fill-rule="nonzero"
       fill="#FFF"
       id="path5433"
       style="fill:#1bffff;fill-opacity:1" />
    <path
       d="m100.1,117.46c1.7033-5.9126,3.1582-11.197,3.8487-14.642,0.11694-0.59107-1.3002-2.7159-3.5464-4.8425l-0.15916-0.32991c10.831,0.03512,22.146,0.09341,22.146,0.09341,2.9554,7.2042,9.6936,27.397,14.777,39.798,1.3443,3.2778,3.6649,3.8965,3.6649,3.8965-9.221-0.11657-26.333-0.0377-26.242-0.11657,4.609-4.136,4.0179-4.136,2.0082-10.157h-14.421c-2.9554,6.8478,0.92098,10.063,1.4172,10.038-3.2823,0.16925-14.421,0-14.421,0,6.0291-4.2529,5.6731-5.5505,5.6731-5.5505,1.6566-5.892,3.5756-12.347,5.2554-18.191l5.9167,0.001c-1.2711,4.0766-2.5421,8.1498-2.5421,8.1498h11.47l-6.3852-16.298s-1.2711,4.0747-2.5425,8.148l-5.9167-0.001"
       fill-rule="nonzero"
       fill="#FFF"
       id="path5435"
       style="fill:#11ffff;fill-opacity:1" />
    <path
       d="m199.17,118.05c1.7-5.9111,3.1567-11.197,3.8457-14.644,0.11657-0.58808-1.3021-2.7129-3.5468-4.841l-0.16028-0.32841c10.834,0.03512,22.152,0.09341,22.152,0.09341,2.9509,7.2042,9.6906,27.398,14.773,39.798,1.3428,3.2793,3.6634,3.898,3.6634,3.898-9.2165-0.11956-26.329-0.0377-26.241-0.11956,4.612-4.1315,4.0209-4.1315,2.0112-10.155h-14.424c-2.9557,6.8492,0.91911,10.063,1.4156,10.04-3.2796,0.16775-14.42,0-14.42,0,6.0276-4.2529,5.6742-5.552,5.6742-5.552,1.6566-5.8931,3.5759-12.346,5.2572-18.189h5.9152c-1.274,4.0762-2.5395,8.1509-2.5395,8.1509h11.464l-6.3848-16.298s-1.267,4.0732-2.5395,8.1468h-5.9152"
       fill-rule="nonzero"
       fill="#FFF"
       id="path5437"
       style="fill:#0effff;fill-opacity:1" />
    <path
       d="m180.52,108.37c-0.23651-8.3874,0-11.103,0-11.103-3.6664,2.9539-1.8169,2.5772-10.993,1.0637-26.445-4.3635-28.46,20.325-14.069,25.863,12.08,4.6497,16.361,5.5606,14.539,9.9186-0.59107,1.4201-11.584,6.6157-22.931-3.8954l0.23352,14.644c1.4186-1.4609,5.3226-4.133,5.3226-4.133,0.11657,0,12.3,5.3678,23.286-0.238,16.908-8.6195,8.4693-22.572-9.5741-28.106-15.014-4.6064-0.82758-15.354,14.066-3.8969"
       fill-rule="nonzero"
       fill="#FFF"
       id="path5439"
       style="fill:#08ffff;fill-opacity:1" />
  </g>
  <g
     inkscape:groupmode="layer"
     id="layer5"
     inkscape:label="estrellas"
     style="opacity:1">
    <path
       sodipodi:type="star"
       style="fill:#ffff08;fill-opacity:1;stroke:none;stroke-width:0.2;stroke-miterlimit:4;stroke-dasharray:none;stroke-opacity:1"
       id="path6155"
       sodipodi:sides="5"
       sodipodi:cx="64.358704"
       sodipodi:cy="69.215736"
       sodipodi:r1="10.451596"
       sodipodi:r2="5.2257977"
       sodipodi:arg1="0.7123576"
       sodipodi:arg2="1.3406761"
       inkscape:flatsided="false"
       inkscape:rounded="0"
       inkscape:randomized="0"
       d="m 72.268712,76.047107 -6.718032,-1.74333 -5.244669,4.545834 -0.41798,-6.927947 -5.944038,-3.583237 6.459707,-2.538376 1.571051,-6.760396 4.410299,5.359144 6.915001,-0.594918 -3.733993,5.85051 z"
       inkscape:transform-center-x="0.62720889"
       inkscape:transform-center-y="-0.24158062"
       transform="matrix(0.85139708,0,0,0.89110148,8.0162347,6.429331)" />
    <path
       inkscape:transform-center-y="-0.3399927"
       inkscape:transform-center-x="0.91458084"
       d="m 153.52607,78.56393 -6.71804,-1.743331 -5.24466,4.545835 -0.41798,-6.927947 -5.94404,-3.583237 6.4597,-2.538376 1.57106,-6.760396 4.41029,5.359144 6.91501,-0.594918 -3.734,5.850509 z"
       inkscape:randomized="0"
       inkscape:rounded="0"
       inkscape:flatsided="false"
       sodipodi:arg2="1.3406761"
       sodipodi:arg1="0.7123576"
       sodipodi:r2="5.2257977"
       sodipodi:r1="10.451596"
       sodipodi:cy="71.732559"
       sodipodi:cx="145.61606"
       sodipodi:sides="5"
       id="path6157"
       style="fill:#ffff08;fill-opacity:1;stroke:none;stroke-width:0.2;stroke-miterlimit:4;stroke-dasharray:none;stroke-opacity:1"
       sodipodi:type="star"
       transform="matrix(1.2414797,0,0,1.2540965,-32.648386,-15.641288)" />
    <path
       sodipodi:type="star"
       style="fill:#ffff08;fill-opacity:1;stroke:none;stroke-width:0.2;stroke-miterlimit:4;stroke-dasharray:none;stroke-opacity:1"
       id="path6159"
       sodipodi:sides="5"
       sodipodi:cx="148.13288"
       sodipodi:cy="189.66359"
       sodipodi:r1="10.451596"
       sodipodi:r2="5.2257977"
       sodipodi:arg1="0.7123576"
       sodipodi:arg2="1.3406761"
       inkscape:flatsided="false"
       inkscape:rounded="0"
       inkscape:randomized="0"
       d="m 156.04288,196.49496 -6.71803,-1.74333 -5.24467,4.54583 -0.41798,-6.92794 -5.94404,-3.58324 6.45971,-2.53838 1.57105,-6.76039 4.4103,5.35914 6.915,-0.59492 -3.73399,5.85051 z"
       inkscape:transform-center-x="0.7366817"
       inkscape:transform-center-y="-0.27110334" />
    <path
       inkscape:transform-center-y="11.46952"
       inkscape:transform-center-x="43.550833"
       d="m 141.3015,40.811619 -6.71803,-1.743331 -5.24467,4.545834 -0.41798,-6.927947 -5.94404,-3.583236 6.45971,-2.538377 1.57105,-6.760396 4.4103,5.359144 6.915,-0.594918 -3.73399,5.85051 z"
       inkscape:randomized="0"
       inkscape:rounded="0"
       inkscape:flatsided="false"
       sodipodi:arg2="1.3406761"
       sodipodi:arg1="0.7123576"
       sodipodi:r2="5.2257977"
       sodipodi:r1="10.451596"
       sodipodi:cy="33.980247"
       sodipodi:cx="133.39149"
       sodipodi:sides="5"
       id="path6161"
       style="fill:#ffff08;fill-opacity:1;stroke:none;stroke-width:0.2;stroke-miterlimit:4;stroke-dasharray:none;stroke-opacity:1"
       sodipodi:type="star"
       transform="matrix(1.2229044,0,0,1.0907488,-27.412063,-3.9579278)" />
    <path
       sodipodi:type="star"
       style="fill:#ffff08;fill-opacity:1;stroke:none;stroke-width:0.2;stroke-miterlimit:4;stroke-dasharray:none;stroke-opacity:1"
       id="path6163"
       sodipodi:sides="5"
       sodipodi:cx="107.14466"
       sodipodi:cy="64.541641"
       sodipodi:r1="10.451596"
       sodipodi:r2="5.2257977"
       sodipodi:arg1="0.7123576"
       sodipodi:arg2="1.3406761"
       inkscape:flatsided="false"
       inkscape:rounded="0"
       inkscape:randomized="0"
       d="m 115.05467,71.373012 -6.71803,-1.74333 -5.24467,4.545834 -0.41798,-6.927947 -5.944039,-3.583237 6.459709,-2.538376 1.57105,-6.760396 4.4103,5.359144 6.915,-0.594918 -3.73399,5.850509 z"
       inkscape:transform-center-x="0.58615629"
       inkscape:transform-center-y="-0.20713764"
       transform="matrix(0.79567099,0,0,0.76405321,19.764735,12.827379)" />
    <path
       sodipodi:type="star"
       style="fill:#ffff08;fill-opacity:1;stroke:none;stroke-width:0.2;stroke-miterlimit:4;stroke-dasharray:none;stroke-opacity:1"
       id="path6165"
       sodipodi:sides="5"
       sodipodi:cx="187.68292"
       sodipodi:cy="173.84357"
       sodipodi:r1="10.451596"
       sodipodi:r2="5.2257977"
       sodipodi:arg1="0.7123576"
       sodipodi:arg2="1.3406761"
       inkscape:flatsided="false"
       inkscape:rounded="0"
       inkscape:randomized="0"
       d="m 195.59293,180.67494 -6.71803,-1.74333 -5.24467,4.54583 -0.41798,-6.92795 -5.94404,-3.58323 6.45971,-2.53838 1.57105,-6.76039 4.4103,5.35914 6.915,-0.59492 -3.73399,5.85051 z"
       inkscape:transform-center-x="0.27141681"
       inkscape:transform-center-y="-0.12349022"
       transform="matrix(0.36843761,0,0,0.4555074,111.95594,89.115734)" />
  </g>
</svg>
